<svg xmlns="http://www.w3.org/2000/svg" viewBox="0 0 191.21 213.77"><defs><style>.cls-1{fill:#e4e4e4;}</style></defs><title>Ativo 5</title><g id="Camada_2" data-name="Camada 2"><g id="Camada_1-2" data-name="Camada 1"><g id="Camada_2-2" data-name="Camada 2"><g id="Camada_1-2-2" data-name="Camada 1-2"><path class="cls-1" d="M96.55,213.77a9.45,9.45,0,0,1-4.7-1.25L5.38,163a9.44,9.44,0,0,1-4.75-8.14L0,62.15A9.46,9.46,0,0,1,4.54,54L91,1.38a9.46,9.46,0,0,1,9.9,0l85.84,53.26a9.46,9.46,0,0,1,4.46,8v92.73a9.44,9.44,0,0,1-4.75,8.2l-85.2,48.88A9.51,9.51,0,0,1,96.55,213.77Zm-77-64.45,77,44.1L172.31,150V68L95.87,20.55,18.94,67.38Z"/><polygon class="cls-1" points="106.29 145.29 87.38 145.29 87.36 87.39 55.08 87.39 55.08 68.48 106.27 68.48 106.29 145.29"/><rect class="cls-1" x="111.25" y="68.63" width="24.88" height="18.72"/><rect class="cls-1" x="111.25" y="94.02" width="24.88" height="18.72"/></g></g></g></g></svg>