<?xml version="1.0" encoding="utf-8"?>
<!-- Generator: Adobe Illustrator 24.0.1, SVG Export Plug-In . SVG Version: 6.00 Build 0)  -->
<svg version="1.1" id="Camada_1" xmlns="http://www.w3.org/2000/svg" xmlns:xlink="http://www.w3.org/1999/xlink" x="0px" y="0px"
	 viewBox="0 0 1000 1000" style="enable-background:new 0 0 1000 1000;" xml:space="preserve">
<style type="text/css">
	.st0{fill:#FFFFFF;}
</style>
<title>phone-circle</title>
<g>
	<path class="st0" d="M415,386.1c-93.5,53.9,49.1,321.3,151.4,262.2l94.9,164.2c-43.2,24.9-79.7,40.6-129.7,12
		c-139-79.3-291.8-344-287.4-501.9c1.5-54.9,33.8-76.3,76.1-100.7C338.3,253.3,396.8,354.6,415,386.1L415,386.1z M454.2,381.6
		c-10.1,5.8-23.1,2.4-28.9-7.8L335.9,219c-5.8-10.1-2.4-23.1,7.8-28.9l47-27.1c10.1-5.8,23.1-2.4,28.9,7.8l89.4,154.9
		c5.8,10.1,2.4,23.1-7.8,28.9L454.2,381.6L454.2,381.6z M698.4,804.6c-10.1,5.8-23.1,2.4-28.9-7.8l-89.4-154.9
		c-5.8-10.1-2.4-23.1,7.8-28.9l47-27.1c10.1-5.8,23.1-2.4,28.9,7.8l89.4,154.9c5.8,10.1,2.4,23.1-7.8,28.9L698.4,804.6z M500,0
		L500,0c138.2,0.1,263.1,56,353.5,146.5c90.4,90.4,146.3,215.4,146.4,353.5h0.1h-0.1c0,138.2-55.9,263.1-146.4,353.5
		C763.1,943.9,638.1,999.8,500,999.9v0.1v-0.1c-138.2,0-263.1-55.9-353.5-146.4C56,763.1,0.1,638.2,0.1,500H0h0.1
		c0-138.2,55.9-263.1,146.4-353.5C236.9,56.1,361.9,0.2,500,0.1V0L500,0z M500,59.7L500,59.7L500,59.7
		c-121.5,0-231.5,49.4-311.3,129C109,268.5,59.7,378.5,59.7,500h0.1h-0.1c0,121.5,49.4,231.5,129,311.3
		c79.8,79.8,189.8,129,311.3,129v-0.1v0.1c121.5,0,231.5-49.4,311.3-129c79.8-79.8,129-189.8,129-311.3h-0.1h0.1
		c0-121.5-49.4-231.5-129-311.3C731.5,109,621.5,59.7,500,59.7L500,59.7z"/>
</g>
</svg>
