<svg xmlns="http://www.w3.org/2000/svg" viewBox="0 0 461.9 463.13"><defs><style>.cls-1{fill:#3c3c3b;}.cls-2{fill:none;}</style></defs><title>Ativo 2</title><g id="Camada_2" data-name="Camada 2"><g id="Camada_1-2" data-name="Camada 1"><path class="cls-1" d="M333.16,452.24c-18-16-2.72-96.24-2.72-96.24s15-56.36,16.81-75.65c3.73-39.47,9.28-121.45-4.8-158.51-7.32-19.25-33.72-55.55-52.83-63.24-13.55-5.45-43.47,6.71-58.07,6.41-15.88-.34-47.93-15.16-62.81-9.61-19.69,7.35-46.84,44.45-54.44,64-14.06,36.22-8.84,116.59-5.6,155.31,1.82,21.78,17.61,85.65,17.61,85.65s1.1,5.63,2.36,14.09c1,6.89,7.65,31.83,7.65,31.83s-4.36-.71-4.24,2.44c.68,17.41-.74,34.32-7.74,40.62-20.33,18.31-92.22,12.53-109.06-9A61.45,61.45,0,0,1,4.53,417.66C3.78,414.79,0,416.9,0,416.9s1.42-19.8,1.39-26C1.25,360.77,10.13,324.29,22,287.72c1.28-4-7.93-1.48-7.93-1.48s23.58-42.89,24.89-46.61c16.45-46.6,26.55-66.12,35.82-95.38,8-25.34,24.74-77.87,42.91-97.26C135.31,28.16,189.1,1.65,214.85,0,219.67-.3,228.15,7,233,6.68c3.73-.2,9.62-6.63,13.35-6.67C272.44-.26,318,24.33,335.07,44.13c16.46,19.13,30.26,47.36,38.65,71.3,3.7,10.54,18.77,34.33,18.77,34.33s-6.2-.06-5.73,1.16c20.17,53.21,57.87,138.18,68.2,206.41,1.68,11.07,6.94,41.08,6.94,41.08s-4.36-2.16-4.6,1.33c-1.18,17.19-5.6,32-14.39,43.19C425.9,464.58,353.7,470.59,333.16,452.24Z"/><path class="cls-2" d="M188,424.44c18.23,7.76,61.1,7.95,79.25,0,21.34-9.33,52.44-47.8,63.24-68.44,9-17.16,15-56.36,16.81-75.65,3.73-39.47,9.28-121.45-4.8-158.51-7.32-19.25-33.72-55.55-52.83-63.24C276.07,53.15,231.55,65,231.55,65s-47.93-15.16-62.81-9.61c-19.69,7.35-46.84,44.45-54.44,64-14.06,36.22-8.84,116.59-5.6,155.31,1.82,21.78,7.42,66.31,17.61,85.65C136.66,380.07,167.5,415.74,188,424.44Z"/><path class="cls-1" d="M255.81,331.85A29.75,29.75,0,0,0,244,329.19c-7-.1-11.11,2.92-11.11,2.92s-5.19-6.16-17.62-.14c0,0-7.23-6.48-18.95-1.13,0,0-4.41-3.7-16.83-1.88,0,0-8.56-4.79-20.9.86,0,0,4.25-24.15,44.42-27l45.09-.52s41.55.87,48.71,24.83l-18.16,3.33a23.8,23.8,0,0,0-11.85-2.88C261.18,327.62,255.81,331.85,255.81,331.85Z"/><path class="cls-1" d="M348.79,280.35C347,299.64,341,338.84,332,356c-10.8,20.64-41.9,59.11-63.24,68.44-18.15,7.95-61,7.76-79.25,0-20.45-8.7-51.29-44.37-61.64-64C117.66,341.06,111,296.75,109.2,275l-1.54-13.43c1.82,21.79,10,66.31,20.19,85.66,10.35,19.66,41.19,55.34,61.64,64,18.23,7.76,61.1,7.94,79.25,0,21.34-9.34,52.44-47.8,63.24-68.44,9-17.17,14.5-59.67,16.81-79Z"/></g></g></svg>